<svg xmlns="http://www.w3.org/2000/svg" width="28" height="28"><path d="M20.46 3.893c-.79-.11-1.583-.162-2.377-.216-1.572-.072-3.15-.067-4.716.107-.42.046-.837.112-1.255.168-1.8.291-3.591.76-5.194 1.654-1.127.629-1.292.853-2.275 1.69-.335.364-.693.71-1.005 1.093-1.29 1.584-2.245 3.494-2.632 5.506-.094.49-.118.992-.177 1.487.026.486.005.976.076 1.456a6.748 6.748 0 0 0 1.928 3.842c1.036 1.028 1.626 1.236 2.911 1.953.637.24 1.26.523 1.911.722 2.84.868 5.91 1.056 8.826.484.71-.14 1.396-.376 2.095-.564.64-.276 1.3-.508 1.919-.829 2.216-1.15 4.242-2.96 5.49-5.137.279-.486.474-1.016.71-1.525.133-.512.321-1.014.398-1.538.224-1.542-.1-3.088-.99-4.377-.873-1.267-1.467-1.55-2.703-2.485-.662-.342-1.3-.736-1.986-1.024-3.345-1.402-7.222-1.77-10.808-1.42-.984.097-1.955.3-2.932.45l-2.78.759c-.218.079-.569-.89-.35-.97l2.885-.802c1.014-.157 2.02-.377 3.043-.47 3.825-.353 7.904.072 11.437 1.652.723.324 1.39.762 2.085 1.143 1.334 1.069 1.951 1.378 2.88 2.808.957 1.47 1.3 3.208 1.045 4.935-.084.573-.288 1.121-.432 1.682-.254.55-.463 1.122-.762 1.649-1.317 2.32-3.455 4.251-5.806 5.486-.654.343-1.353.593-2.03.89-.736.201-1.459.455-2.207.606-3.109.624-6.407.403-9.419-.579-.686-.223-1.339-.538-2.008-.807-1.39-.82-1.99-1.039-3.102-2.198a7.733 7.733 0 0 1-2.078-4.297c-.074-.525-.05-1.059-.075-1.588.064-.532.09-1.07.192-1.598.414-2.137 1.432-4.161 2.81-5.838.334-.407.717-.772 1.075-1.158 1.054-.89 1.236-1.131 2.44-1.802 1.673-.932 3.542-1.429 5.424-1.719.431-.054.861-.119 1.294-.163 1.65-.167 3.313-.141 4.967-.029.794.073 1.59.145 2.375.292.14.026.022.646-.118.619z" fill="#ea2325"/></svg>